<?xml version="1.0" encoding="utf-8"?>
<!-- Generator: Adobe Illustrator 25.0.1, SVG Export Plug-In . SVG Version: 6.00 Build 0)  -->
<svg version="1.1"
	 id="svg2411" xmlns:cc="http://creativecommons.org/ns#" xmlns:dc="http://purl.org/dc/elements/1.1/" xmlns:inkscape="http://www.inkscape.org/namespaces/inkscape" xmlns:ns1="http://sozi.baierouge.fr" xmlns:rdf="http://www.w3.org/1999/02/22-rdf-syntax-ns#" xmlns:sodipodi="http://sodipodi.sourceforge.net/DTD/sodipodi-0.dtd" xmlns:svg="http://www.w3.org/2000/svg"
	 xmlns="http://www.w3.org/2000/svg" xmlns:xlink="http://www.w3.org/1999/xlink" x="0px" y="0px" viewBox="0 0 350.3 350.3"
	 style="enable-background:new 0 0 350.3 350.3;" xml:space="preserve">
<style type="text/css">
	.st0{fill:none;}
</style>
<path id="layer1" transform="translate(-202 -474.36)" inkscape:groupmode="layer" inkscape:label="Layer 1" class="st0" d="
	M377.1,824.7c-96.6,0-175.1-78.6-175.1-175.1c0-96.6,78.6-175.1,175.1-175.1c96.6,0,175.1,78.6,175.1,175.1
	C552.3,746.1,473.7,824.7,377.1,824.7z M377.1,486.4c-90,0-163.1,73.2-163.1,163.1c0,90,73.2,163.1,163.1,163.1
	c90,0,163.1-73.2,163.1-163.1C540.3,559.5,467.1,486.4,377.1,486.4z M344.1,548.9c0-8.5,3.2-15.7,9.7-21.6c6.4-6,14.1-9,23.1-9
	c9.1,0,16.9,3,23.3,9c6.4,6,9.7,13.2,9.7,21.7c0,8.3-3.2,15.6-9.7,21.7c-6.4,6-14.2,9-23.3,9c-9,0-16.7-3-23.1-9
	C347.3,564.5,344.1,557.3,344.1,548.9L344.1,548.9z M407,606.3v176.2h-59.7V606.3C347.3,606.3,407,606.3,407,606.3"/>
</svg>
